<?xml version="1.0" standalone="no"?>
<!DOCTYPE svg PUBLIC "-//W3C//DTD SVG 20010904//EN"
 "http://www.w3.org/TR/2001/REC-SVG-20010904/DTD/svg10.dtd">
<svg version="1.0" xmlns="http://www.w3.org/2000/svg"
 width="64.000000pt" height="64.000000pt" viewBox="0 0 64.000000 64.000000"
 preserveAspectRatio="xMidYMid meet">

<g transform="translate(0.000000,64.000000) scale(0.100000,-0.100000)"
fill="#000000" stroke="none">
<path d="M12 403 c2 -213 3 -214 5 -50 l3 167 240 0 c148 0 241 4 245 10 4 7
-78 10 -239 10 l-246 0 0 30 0 30 211 0 c184 0 210 -2 199 -15 -14 -16 -5 -35
16 -35 20 0 30 30 13 41 -10 6 -6 9 15 9 24 0 26 -2 16 -15 -14 -16 -5 -35 16
-35 20 0 30 30 13 41 -10 6 -6 9 15 9 24 0 26 -2 16 -15 -13 -16 -6 -35 15
-35 21 0 28 19 15 35 -10 13 -8 15 14 15 22 0 26 -4 26 -30 0 -28 -3 -30 -35
-30 -19 0 -35 -4 -35 -10 0 -5 15 -10 34 -10 34 0 35 -1 39 -42 2 -24 4 -1 5
50 l2 92 -310 0 -310 0 2 -217z"/>
<path d="M40 570 c0 -14 337 -14 345 0 4 7 -55 10 -169 10 -111 0 -176 -4
-176 -10z"/>
<path d="M270 483 c-53 -19 -84 -40 -110 -76 -56 -77 -56 -77 160 -77 177 0
190 1 190 18 0 22 -37 74 -71 100 -45 35 -124 51 -169 35z m40 -38 c0 -20 -5
-25 -25 -25 -29 0 -31 7 -8 32 22 25 33 23 33 -7z m52 8 c25 -22 23 -33 -7
-33 -20 0 -25 5 -25 25 0 29 7 31 32 8z m-117 -13 c-10 -11 -25 -20 -34 -20
-12 1 -10 5 8 20 30 26 49 26 26 0z m176 0 c18 -15 20 -19 8 -20 -9 0 -24 9
-34 20 -23 26 -4 26 26 0z m-204 -65 c-9 -31 -14 -35 -44 -35 l-33 0 17 35
c13 27 23 35 44 35 26 0 27 -1 16 -35z m93 0 c0 -35 0 -35 -44 -35 l-45 0 10
32 c5 18 9 34 9 35 0 2 16 3 35 3 33 0 35 -2 35 -35z m90 32 c0 -1 4 -17 9
-35 l10 -32 -45 0 c-44 0 -44 0 -44 35 0 33 2 35 35 35 19 0 35 -1 35 -3z m83
-34 l19 -33 -34 0 c-31 0 -36 4 -46 36 -10 34 -10 35 16 32 17 -2 33 -14 45
-35z"/>
<path d="M620 225 l0 -185 -300 0 -299 0 -4 58 -3 57 -2 -67 -2 -68 310 0 310
0 0 195 c0 107 -2 195 -5 195 -3 0 -5 -83 -5 -185z"/>
<path d="M180 286 c0 -19 5 -24 20 -23 14 1 20 8 20 27 0 20 -2 22 -10 10 -6
-10 -10 -11 -10 -2 0 6 -4 12 -10 12 -5 0 -10 -11 -10 -24z"/>
<path d="M238 285 c2 -14 8 -25 12 -25 4 0 10 11 12 25 4 19 1 25 -12 25 -13
0 -16 -6 -12 -25z"/>
<path d="M288 285 c2 -14 8 -25 12 -25 4 0 10 11 12 25 4 19 1 25 -12 25 -13
0 -16 -6 -12 -25z"/>
<path d="M330 285 c0 -27 1 -28 24 -19 24 9 20 44 -4 44 -15 0 -20 -7 -20 -25z"/>
<path d="M417 304 c-4 -4 -7 -17 -7 -28 1 -19 1 -20 11 -3 11 19 8 43 -4 31z"/>
<path d="M438 285 c-6 -28 6 -34 16 -9 8 22 7 34 -3 34 -5 0 -11 -11 -13 -25z"/>
<path d="M130 222 c0 -32 56 -98 102 -121 87 -42 193 -16 249 62 56 77 55 77
-161 77 -178 0 -190 -1 -190 -18z m87 -27 c11 -34 10 -35 -14 -35 -28 0 -52
24 -53 53 0 12 8 17 28 17 24 0 30 -6 39 -35z m93 0 c0 -33 -2 -35 -34 -35
-29 0 -36 5 -44 29 -13 36 -8 41 40 41 37 0 38 -1 38 -35z m103 29 c3 -3 1
-19 -5 -35 -8 -24 -15 -29 -44 -29 -32 0 -34 2 -34 35 0 34 1 35 38 35 21 0
41 -3 45 -6z m77 -11 c-1 -29 -25 -53 -53 -53 -24 0 -25 1 -14 35 9 29 15 35
39 35 20 0 28 -5 28 -17z m-242 -85 c9 -9 12 -9 12 0 0 7 11 12 25 12 19 0 25
-5 25 -21 0 -16 -4 -19 -17 -14 -10 4 -27 7 -37 7 -10 -1 -28 6 -40 14 -20 14
-20 14 0 14 11 0 25 -5 32 -12z m132 0 c0 -9 3 -9 12 0 7 7 21 12 32 12 20 0
20 0 0 -14 -12 -8 -30 -15 -40 -14 -10 0 -27 -3 -36 -7 -14 -5 -18 -2 -18 14
0 16 6 21 25 21 14 0 25 -5 25 -12z"/>
</g>
</svg>
